<svg xmlns="http://www.w3.org/2000/svg" viewBox="0 0 120 120"><title>RestoLibra</title><rect width="120" height="120" rx="27" fill="#ea580c"/><g transform="translate(9 9) scale(.85)"><path d="M46 18c-4 4 4 7 0 11" fill="none" stroke="#ffffff" stroke-width="4" stroke-linecap="round" opacity=".5"/><path d="M60 18c-4 4 4 7 0 11" fill="none" stroke="#ffffff" stroke-width="4" stroke-linecap="round" opacity=".5"/><path d="M74 18c-4 4 4 7 0 11" fill="none" stroke="#ffffff" stroke-width="4" stroke-linecap="round" opacity=".5"/><path d="M26 78a34 34 0 0 1 68 0z" fill="#ffffff"/><path d="M38 70a23 23 0 0 1 13-17" fill="none" stroke="#fed7aa" stroke-width="4.5" stroke-linecap="round"/><circle cx="60" cy="42" r="6" fill="#fbbf24" stroke="#ea580c" stroke-width="6" paint-order="stroke" stroke-linejoin="round"/><rect x="18" y="82" width="84" height="8" rx="4" fill="#ffffff"/><rect x="34" y="94" width="52" height="5" rx="2.5" fill="#ffffff" opacity=".4"/></g></svg>
